<mxfile host="app.diagrams.net" agent="Mozilla/5.0 (Windows NT 10.0; Win64; x64) AppleWebKit/537.36 (KHTML, like Gecko) Chrome/131.0.0.0 Safari/537.36" version="26.0.6">
  <diagram name="PÃ¡gina-1" id="fuGuSq2JwUtMkJaB7rz6">
    <mxGraphModel dx="1050" dy="522" grid="1" gridSize="10" guides="1" tooltips="1" connect="1" arrows="1" fold="1" page="1" pageScale="1" pageWidth="827" pageHeight="1169" math="0" shadow="0">
      <root>
        <mxCell id="0" />
        <mxCell id="1" parent="0" />
        <mxCell id="6vMkS5VrEqxKtSXbtD4y-1" value="Aluno&lt;div&gt;- Id: int PK&lt;/div&gt;&lt;div&gt;- Nome: varchar&lt;/div&gt;&lt;div&gt;- Idade: int&lt;/div&gt;" style="rounded=1;whiteSpace=wrap;html=1;align=left;" parent="1" vertex="1">
          <mxGeometry x="60" y="80" width="260" height="210" as="geometry" />
        </mxCell>
        <mxCell id="6vMkS5VrEqxKtSXbtD4y-2" value="Professor&lt;div&gt;- Id: int PK&lt;/div&gt;&lt;div&gt;- Nome: varchar&lt;/div&gt;&lt;div&gt;- Idade: int&lt;/div&gt;" style="rounded=1;whiteSpace=wrap;html=1;align=left;" parent="1" vertex="1">
          <mxGeometry x="470" y="75" width="290" height="220" as="geometry" />
        </mxCell>
        <mxCell id="6vMkS5VrEqxKtSXbtD4y-3" value="Materia&lt;div&gt;- Id: int PK&lt;/div&gt;&lt;div&gt;- Nome: varchar&lt;/div&gt;&lt;div&gt;- Id_professor: int FK&lt;/div&gt;&lt;div&gt;- periodo: int&lt;/div&gt;&lt;div&gt;- numero_vagas_total: int&lt;/div&gt;&lt;div&gt;- numero_vagas_atual: int&lt;/div&gt;" style="rounded=1;whiteSpace=wrap;html=1;align=left;" parent="1" vertex="1">
          <mxGeometry x="470" y="480" width="290" height="230" as="geometry" />
        </mxCell>
        <mxCell id="6vMkS5VrEqxKtSXbtD4y-4" value="" style="edgeStyle=entityRelationEdgeStyle;fontSize=12;html=1;endArrow=ERmany;rounded=0;exitX=0.466;exitY=0.995;exitDx=0;exitDy=0;exitPerimeter=0;entryX=0.5;entryY=0;entryDx=0;entryDy=0;" parent="1" source="6vMkS5VrEqxKtSXbtD4y-2" target="6vMkS5VrEqxKtSXbtD4y-3" edge="1">
          <mxGeometry width="100" height="100" relative="1" as="geometry">
            <mxPoint x="360" y="510" as="sourcePoint" />
            <mxPoint x="460" y="410" as="targetPoint" />
            <Array as="points">
              <mxPoint x="640" y="360" />
              <mxPoint x="635" y="380" />
            </Array>
          </mxGeometry>
        </mxCell>
        <mxCell id="6vMkS5VrEqxKtSXbtD4y-5" value="1..*" style="text;html=1;align=center;verticalAlign=middle;resizable=0;points=[];autosize=1;strokeColor=none;fillColor=none;" parent="1" vertex="1">
          <mxGeometry x="640" y="348" width="40" height="30" as="geometry" />
        </mxCell>
        <mxCell id="6vMkS5VrEqxKtSXbtD4y-6" value="Aluno Materia&lt;br&gt;&lt;div&gt;- Id: int PK&lt;/div&gt;&lt;div&gt;- Id_materia: int FK&lt;/div&gt;&lt;div&gt;- Id_aluno: int FK&lt;/div&gt;&lt;div&gt;- ano: int&lt;/div&gt;" style="rounded=1;whiteSpace=wrap;html=1;align=left;" parent="1" vertex="1">
          <mxGeometry x="20" y="470" width="340" height="240" as="geometry" />
        </mxCell>
      </root>
    </mxGraphModel>
  </diagram>
</mxfile>
